<svg t="1726281545010" class="icon" viewBox="0 0 1024 1024" version="1.1" xmlns="http://www.w3.org/2000/svg" p-id="4466" width="32" height="32"><path d="M468.388 1023.844s354.08-22.554 424.244-510.5c0 0-424.244 41.332-424.244 510.5zM511.046 256.078c0-47.018 38.254-85.288 85.3-85.288 47.05 0 85.32 38.27 85.32 85.288h42.64c0-70.666-57.292-127.96-127.96-127.96-70.664 0-127.958 57.294-127.958 127.96 0 37.926 16.478 71.948 42.658 95.376v-95.376zM383.086 384.04c-70.682 0-127.96 57.294-127.96 127.96h42.658c0-47.018 38.256-85.288 85.302-85.288 47.034 0 85.302 38.27 85.302 85.288v95.378c26.18-23.432 42.658-57.454 42.658-95.378 0-70.666-57.294-127.96-127.96-127.96z" fill="#8CC153" p-id="4467"></path><path d="M383.086 0.156c-70.682 0-127.96 57.294-127.96 127.96h42.658c0-47.018 38.256-85.288 85.302-85.288 47.034 0 85.302 38.27 85.302 85.288v895.726h42.658V128.118c0-70.666-57.294-127.962-127.96-127.962z" fill="#A0D468" p-id="4468"></path><path d="M381.602 202.344c-1.06-22.024-2.138-44.768-16.134-63.856-15.84-21.618-42.862-31.678-85.052-31.678h-1.562c-42.174 0-69.198 10.06-85.036 31.678-13.996 19.088-15.09 41.832-16.136 63.856-1.344 28.148-3.044 46.018-20.244 58.264l-26.068 18.588 27.194 16.902c3.124 1.936 31.288 18.994 56.608 18.994 1.954 0 3.876-0.094 5.734-0.282 10.84 12.652 29.568 31.146 51.42 38.176l6.56 2.124 0.75-0.25 0.75 0.25 6.576-2.124c21.838-7.03 40.582-25.524 51.422-38.176 1.86 0.188 3.766 0.282 5.732 0.282 25.336 0 53.484-17.058 56.608-18.994l27.196-16.902-26.086-18.588c-17.202-12.246-18.888-30.116-20.232-58.264z" fill="#AC92EB" p-id="4469"></path><path d="M822 388.568c-17.214-12.246-18.902-30.116-20.246-58.264-1.062-22.024-2.154-44.768-16.15-63.856-15.806-21.618-42.862-31.678-85.038-31.678h-1.562c-42.174 0-69.196 10.06-85.036 31.678-13.996 19.088-15.058 41.832-16.122 63.856-1.376 28.148-3.06 46.018-20.242 58.264l-26.086 18.588 27.21 16.902c3.124 1.936 31.27 18.994 56.606 18.994 1.938 0 3.876-0.094 5.718-0.282 10.84 12.652 29.584 31.146 51.422 38.176l6.59 2.124 0.718-0.25 0.75 0.25 6.594-2.124c21.836-7.03 40.548-25.524 51.422-38.176 1.842 0.188 3.746 0.282 5.714 0.282 25.336 0 53.484-17.058 56.61-18.994l27.21-16.902L822 388.568zM381.602 586.226c-1.06-22.024-2.138-44.766-16.134-63.856-15.84-21.618-42.862-31.678-85.052-31.678h-1.562c-42.174 0-69.198 10.06-85.036 31.678-13.996 19.09-15.09 41.832-16.136 63.856-1.344 28.148-3.044 46.02-20.244 58.266l-26.068 18.586 27.194 16.902c3.124 1.938 31.288 18.994 56.608 18.994 1.954 0 3.876-0.094 5.734-0.282 10.84 12.652 29.568 31.146 51.42 38.176l6.56 2.124 0.75-0.25 0.75 0.25 6.576-2.124c21.838-7.03 40.582-25.524 51.422-38.176 1.86 0.188 3.766 0.282 5.732 0.282 25.336 0 53.484-17.056 56.608-18.994l27.196-16.902-26.086-18.586c-17.202-12.246-18.888-30.116-20.232-58.266z" fill="#967ADC" p-id="4470"></path></svg>